<svg viewBox="0 0 1024 1024" version="1.1" xmlns="http://www.w3.org/2000/svg"><path d="M512 0c282.77 0 512 229.23 512 512s-229.23 512-512 512S0 794.77 0 512 229.23 0 512 0z m0 85.333C276.358 85.333 85.333 276.358 85.333 512c0 199.106 136.382 366.359 320.824 413.436l0.005-0.01c0.133-23.445 1.16-56.024 3.082-97.735-44.2 1.527-72.126-1.54-83.776-9.201-17.479-11.493-34.974-46.934-50.5-71.91-15.525-24.978-49.98-28.927-63.895-34.51-13.914-5.585-17.407-28.345 38.341-11.131 55.747 17.214 58.467 64.09 76.054 75.05 17.585 10.961 59.63 6.166 78.688-2.615 19.059-8.78 17.655-41.474 21.054-54.426 4.296-12.09-10.846-14.77-11.18-14.87-18.606 0-116.347-21.256-143.193-115.905-26.848-94.648 7.736-156.512 26.185-183.106 12.3-17.73 11.213-55.516-3.264-113.361 52.557-6.716 93.116 9.826 121.675 49.63 0.027 0.228 37.442-22.25 96.573-22.25 59.13 0 80.107 18.31 96.297 22.25 16.19 3.94 29.137-69.675 129.122-49.63-20.875 41.028-38.355 92.296-25.013 113.36 13.344 21.065 65.71 88.048 33.542 183.107-21.444 63.375-63.6 102.01-126.468 115.906-7.209 2.3-10.814 6.012-10.814 11.132 0 7.682 9.747 8.52 23.787 44.505 8.036 20.593 9.671 74 4.908 160.22l0.005 0.014C811.831 866.399 938.667 704.012 938.667 512c0-235.642-191.025-426.667-426.667-426.667z" fill="#8b8b8b"></path>
</svg>