<svg viewBox="0 0 1024 1024" version="1.1" xmlns="http://www.w3.org/2000/svg" width="20" height="20"><path d="M923.1 548.3c-20.1-3.7-39.3 9.8-42.9 29.9C848.4 756.6 693.5 886 512 886c-206.2 0-374-167.8-374-374 0-183.6 131.2-338.7 311.9-368.9 20.1-3.4 33.8-22.4 30.4-42.6s-22.4-33.6-42.6-30.4C221.1 106.3 64 292.2 64 512c0 247 201 448 448 448 217.4 0 402.9-155.1 441-368.8 3.6-20.1-9.8-39.3-29.9-42.9z" fill="#6495ed"></path><path d="M960 115.1V101c0-20.4-16.6-37-37-37H676.4c-20.4 0-37 16.6-37 37s16.6 37 37 37h169.9L486.1 490.1c-14.6 14.3-14.9 37.7-0.6 52.3 7.2 7.4 16.8 11.1 26.5 11.1 9.3 0 18.7-3.5 25.9-10.5L886 202.6v145c0 20.4 16.6 37 37 37s37-16.6 37-37V115.1z" fill="#6495ed"></path></svg>