<svg viewBox="0 0 1024 1024" version="1.1" xmlns="http://www.w3.org/2000/svg" width="128" height="128"><path d="M671.547 191.541H160.522c-52.935 0-96 43.065-96 96l2.823 449.156c0.074 52.872 43.111 95.861 96 95.861H674.37c52.935 0 96-43.065 96-96l-2.823-449.123c-0.058-52.885-43.101-95.894-96-95.894zM516.569 518.969l187.097-212.506 2.464 391.95-189.561-179.444zM131.128 701.945l-2.509-399.033 205.626 228.305-203.117 170.728z m40.957-446.404h491.144L420.447 531.295 172.085 255.541z m-8.74 513.018a31.86 31.86 0 0 1-10.063-1.63L377.101 578.8l19.84 22.028a32 32 0 0 0 23.777 10.584l0.181-0.001c9.13-0.051 17.804-4 23.837-10.854l29.513-33.522 210.904 199.649a31.857 31.857 0 0 1-10.783 1.874H163.345zM927.995 192.411h-95.834c-17.673 0-32 14.327-32 32s14.327 32 32 32h95.834c17.673 0 32-14.327 32-32s-14.327-32-32-32zM896.34 320.293l-64.371-0.334h-0.17c-17.594 0-31.904 14.218-31.996 31.833-0.092 17.673 14.161 32.074 31.834 32.166l64.371 0.334h0.17c17.594 0 31.904-14.218 31.996-31.834 0.092-17.672-14.161-32.073-31.834-32.165zM864.255 450.176l-33.545-0.334-0.326-0.001c-17.523 0-31.816 14.118-31.991 31.681-0.177 17.672 14.007 32.141 31.679 32.317l33.545 0.334 0.326 0.002c17.523 0 31.816-14.118 31.991-31.681 0.176-17.672-14.007-32.141-31.679-32.318z" fill="#636e72"></path></svg>